<?xml version="1.0" encoding="UTF-8"?>
<svg id="Design" xmlns="http://www.w3.org/2000/svg" width="1032.37" height="284.79" viewBox="0 0 1032.37 284.79">
  <defs>
    <style>
      .cls-1 {
        fill: #fff;
      }
    </style>
  </defs>
  <path class="cls-1" d="M237.98,122.58h-32.57c-18.15,0-33.8,12.25-38.19,29.83h-.02c-1.44,5.49-6.4,9.33-12.04,9.33h-17.26c-6.1,0-11.06,4.96-11.06,11.06v17.51c0,6.1,4.96,11.06,11.06,11.06h17.26v.03c5.64,0,10.59,3.84,12.04,9.33h.02c4.4,17.58,20.03,29.81,38.18,29.81h2.98c6.1,0,11.06-4.96,11.06-11.06v-17.51c0-6.1-4.96-11.06-11.06-11.06h-32.88c-5.06-.13-9.03-4.2-9.03-9.25v-20.16c0-5.11,4.16-9.28,9.28-9.28h62.22c6.1,0,11.06-4.96,11.06-11.06v-17.51c0-6.1-4.96-11.06-11.06-11.06ZM166.25,201.3h0ZM126.12,132.39h-.01c-4.39,17.58-20.05,29.83-38.19,29.83h-32.57c-6.1,0-11.06-4.96-11.06-11.06v-17.51c0-6.1,4.96-11.06,11.06-11.06h62.23c5.1-.01,9.25-4.17,9.25-9.27v-20.17c0-5.11-4.16-9.28-9.28-9.28h-32.63c-6.11,0-11.08-4.95-11.08-11.03v-17.5c0-6.11,4.97-11.08,11.08-11.08h3c17.99,0,33.67,12.14,38.14,29.53v.06c.03.09.05.15.05.24,1.44,5.48,6.39,9.32,12.03,9.32h17.26c6.11,0,11.08,4.97,11.08,11.08v17.5c0,6.11-4.97,11.08-11.08,11.08h-17.26c-5.65,0-10.6,3.84-12.04,9.34Z"/>
  <g>
    <path class="cls-1" d="M325.95,93.93h-27.58c-4.26,0-7.71,3.45-7.71,7.71v81.44c0,4.26,3.45,7.71,7.71,7.71h27.58c28.5,0,49.26-20.34,49.26-48.43s-20.76-48.43-49.26-48.43ZM325.26,173.08h-15.91v-61.44h15.91c18.13,0,31.27,13.01,31.27,30.72s-13.15,30.72-31.27,30.72Z"/>
    <path class="cls-1" d="M455.08,118.69h-9.65c-2.27,0-4.1,1.84-4.1,4.1v4.89c-5.67-5.67-13.42-8.99-22.42-8.99-19.51,0-33.35,15.36-33.35,36.95s13.84,36.95,33.35,36.95c8.99,0,16.74-3.32,22.42-8.99v3.1c0,2.26,1.83,4.1,4.1,4.1h9.65c2.27,0,4.1-1.84,4.1-4.1v-63.89c0-2.26-1.84-4.1-4.1-4.1ZM422.52,176.53c-11.49,0-19.51-8.58-19.51-20.89s8.02-20.89,19.51-20.89,19.23,8.58,19.23,20.89-8.02,20.89-19.23,20.89Z"/>
    <path class="cls-1" d="M589.95,118.69h-9.65c-2.26,0-4.1,1.84-4.1,4.1v4.89c-5.67-5.67-13.42-8.99-22.42-8.99-19.51,0-33.34,15.36-33.34,36.95s13.83,36.95,33.34,36.95c8.99,0,16.74-3.32,22.42-8.99v3.1c0,2.26,1.84,4.1,4.1,4.1h9.65c2.27,0,4.1-1.84,4.1-4.1v-63.89c0-2.26-1.83-4.1-4.1-4.1ZM557.38,176.53c-11.48,0-19.51-8.58-19.51-20.89s8.03-20.89,19.51-20.89,19.24,8.58,19.24,20.89-8.03,20.89-19.24,20.89Z"/>
    <path class="cls-1" d="M656.67,92.2h-11.95c-16.74,0-26.29,9.54-26.29,23.38v3.8h-9.04c-2.27,0-4.1,1.84-4.1,4.1v7.3c0,2.26,1.83,4.1,4.1,4.1h9.04v51.8c0,2.26,1.84,4.1,4.1,4.1h9.65c2.27,0,4.1-1.84,4.1-4.1v-51.8h18.73c2.27,0,4.1-1.84,4.1-4.1v-7.3c0-2.26-1.83-4.1-4.1-4.1h-18.73v-3.39c0-4.85,2.91-8.3,8.44-8.3h11.95c2.27,0,4.1-1.84,4.1-4.1v-7.3c0-2.26-1.84-4.1-4.1-4.1Z"/>
    <path class="cls-1" d="M705.5,118.84h-6.07c-21.03,0-33.21,13.01-33.21,31.68v37.64c0,1.38,1.25,2.63,2.63,2.63h12.59c1.38,0,2.63-1.25,2.63-2.63v-37.22c0-9.68,5.12-16.6,15.36-16.6h6.07c2.27,0,4.1-1.84,4.1-4.1v-7.29c0-2.26-1.83-4.1-4.1-4.1Z"/>
    <path class="cls-1" d="M784.23,118.69h-9.65c-2.27,0-4.1,1.84-4.1,4.1v4.89c-5.67-5.67-13.42-8.99-22.42-8.99-19.51,0-33.35,15.36-33.35,36.95s13.84,36.95,33.35,36.95c8.99,0,16.74-3.32,22.42-8.99v3.1c0,2.26,1.83,4.1,4.1,4.1h9.65c2.26,0,4.1-1.84,4.1-4.1v-63.89c0-2.26-1.84-4.1-4.1-4.1ZM751.67,176.53c-11.48,0-19.51-8.58-19.51-20.89s8.03-20.89,19.51-20.89,19.23,8.58,19.23,20.89-8.03,20.89-19.23,20.89Z"/>
    <path class="cls-1" d="M880.2,118.69c-9.41,0-17.02,4.29-21.72,11.49-4.71-7.2-12.32-11.49-21.45-11.49-6.64,0-12.45,2.22-17.02,6.09l-1.17-3.24c-.59-1.63-2.13-2.71-3.86-2.71h-8.17c-2.27,0-4.1,1.84-4.1,4.1v63.75c0,2.26,1.83,4.1,4.1,4.1h9.65c2.26,0,4.1-1.84,4.1-4.1v-37.28c0-8.85,5.26-15.08,12.73-15.08s12.59,6.23,12.59,15.08v37.28c0,2.26,1.83,4.1,4.1,4.1h9.65c2.26,0,4.1-1.84,4.1-4.1v-37.28c0-8.85,5.26-15.08,12.73-15.08s12.59,6.23,12.59,15.08v37.28c0,2.26,1.83,4.1,4.1,4.1h9.65c2.26,0,4.1-1.84,4.1-4.1v-37.69c0-17.85-11.07-30.3-26.7-30.3Z"/>
    <path class="cls-1" d="M511.79,177.09h-3.35c-5.53,0-8.44-3.45-8.44-8.3v-34.45h7.9c2.26,0,4.1-1.84,4.1-4.1v-7.3c0-2.26-1.84-4.1-4.1-4.1h-7.9v-15.61c0-2.26-1.84-4.1-4.1-4.1h-9.65c-2.27,0-4.1,1.84-4.1,4.1v15.61h-7.9c-2.27,0-4.1,1.84-4.1,4.1v7.3c0,2.26,1.83,4.1,4.1,4.1h7.9v34.87c0,13.84,9.55,23.38,26.29,23.38h3.35c2.27,0,4.1-1.84,4.1-4.1v-7.3c0-2.26-1.83-4.1-4.1-4.1Z"/>
    <path class="cls-1" d="M987.13,153c0-20.06-14.14-34.29-33.9-34.29s-35.29,15.35-35.29,36.93,15.22,36.93,36.67,36.93c.56,0,1.08,0,1.6-.04,10.86-.22,17.64-2.85,22.7-5.79,1.08-.61,1.77-1.69,1.95-2.85.13-.82.04-1.73-.39-2.51l-3.76-7.14c-.52-1.04-1.47-1.82-2.59-2.12-1.13-.3-2.34-.17-3.33.43-3.16,1.86-6.57,3.07-10.64,3.59-.56.13-1.17.17-1.77.22-.61.09-1.21.13-1.86.13-.6.04-1.25.04-1.9.04-9.12,0-16.22-5.79-18.55-14.66h42.47c3.63,0,8.6-1.77,8.6-8.87ZM936.06,149.28c2.21-8.86,8.74-14.53,17.17-14.53s14.79,5.79,16.17,14.53h-33.34Z"/>
  </g>
</svg>